<svg version="1" xmlns="http://www.w3.org/2000/svg" width="577.333" height="577.333" viewBox="0 0 433.000000 433.000000"><path d="M27.9 102c-8 4.2-14.9 16.8-19.8 36.5-1.8 6.9-3 14.1-5.5 31.5-2.8 18.8-2.8 69.9-.1 90 .2 1.4.6 4.6.9 7.2.3 2.6.8 5.8 1 7 .3 1.3.8 4 1.1 6 2.2 16.2 9.4 35.4 15.9 42.6 12.4 13.7 26 7.8 41.3-18.1l4-6.7 1.3 4.2c1.8 6.4 6.8 16.1 10.3 20.3 3.3 4 9.6 7.5 13.7 7.5 9.5 0 22.4-13.8 33.4-35.8 2-3.9 4-7.2 4.4-7.2.4 0 1.5 1.3 2.5 2.9.9 1.6 3.8 5.6 6.4 8.8 24.2 30.4 46.6 38.2 71 24.8l6.2-3.4 8.3 4.2c9.3 4.8 11.2 5.2 21.8 5.1 12.1-.2 23-5.4 34.8-16.8 5.7-5.4 15.2-16.6 19.3-22.8l2.5-3.7 4.4 8.5c8.6 16.8 18.9 30.2 25.9 33.9 12.6 6.4 24.5-3.4 32.6-27 .7-1.9.7-1.9 1.8-.1 10.5 17 16.7 24.4 23.2 27.6 10.7 5.2 20.2-.1 27.5-15.4 3.6-7.7 8-22.7 9.5-32.6.4-2.5.9-5.4 1.1-6.5.2-1.1.6-4.5 1-7.5.3-3 .7-6.6.9-8 2.5-14.4 2.5-72.1 0-91-.3-1.9-.7-5.8-1-8.5-1.9-17-7.8-37.3-13.5-46.7-11.8-19.6-27.4-16.2-43.6 9.3l-5.7 9-2.3-6.7c-5.5-15.5-13-23.6-22.4-24.3-10.1-.7-21.4 10.9-34.1 34.6-2.4 4.6-4.6 8.3-4.9 8.3-.3 0-2.6-2.8-5.2-6.3-2.5-3.5-7.7-9.6-11.4-13.6-23.3-25-44-29.3-67.4-13.8-2.4 1.5-2.7 1.5-6.9-1.3-13.4-9-28.7-10.2-42.6-3.2-10.5 5.2-23.8 17.6-34.2 31.9-2.6 3.5-5 6.3-5.3 6.3-.3 0-2.3-3.5-4.4-7.8-7.7-15.6-16.8-28-23.4-31.9-8.8-5.2-16.1-3.7-23.2 4.5-3.9 4.5-11 18.5-11 21.7 0 3-1.6 1.2-6.9-7.5-11.6-19-22.6-25.6-33.2-20zm13.6 12.2c4.6 4 9.9 11.7 16.5 24.1 3.9 7.3 5 10.3 4.6 12.4-.8 4-1.5 8.1-2.1 13.3-.3 2.5-.7 6-1 7.9-2.6 20.5-2.7 73.9-.1 87.6.5 2.9 2 12.7 2.1 14.5.1.8.5 3 .9 4.8.7 2.8 0 4.7-4.9 13.8-9 17.2-15.2 24.8-21.1 26-5.9 1.1-11.3-7.3-15.8-24.9-3-11.6-5.7-27.1-7.1-41.2-.2-2.2-.7-7.6-1.2-12-1-9.7-1-39.8 0-51.5 3-35.4 10.3-66.8 17.3-74.6 3.9-4.3 7.3-4.3 11.9-.2zm55.7-1.4c5.1 3.4 14.1 16.9 22.9 34.5l3.4 6.8-2.4 4.2c-1.3 2.3-6.8 12.9-12.1 23.4L99.4 201l-11.8-26.5c-12.9-29.1-12.5-27.1-9-40.5 3.4-13.4 9.4-23 14.3-23 .9 0 2.8.8 4.3 1.8zm100.7.4c3 1 6.6 2.6 8 3.5 2.4 1.6 2.4 1.6.5 3.2-4 3.3-16.4 19.5-23.5 30.9-4 6.4-11.6 20.4-16.9 31l-9.7 19.3-10.1-22.8-10.1-22.8 2.1-3.5c4-7 13.2-19 18.8-24.8 14.1-14.6 26.6-18.9 40.9-14zm61.8 1.8c8.9 4.4 20.5 16 30.1 30.3 3.9 5.9 7.2 11 7.2 11.3 0 .3-2.2 5.3-5 11.1-2.7 5.8-5 10.7-5 10.8 0 .2-1.5 3.6-3.4 7.7-1.8 4-4.1 9.1-5 11.2-.9 2.2-1.8 3.7-2 3.5-.1-.2-4.8-9.3-10.4-20.2-11.1-21.8-25.7-44.6-35.2-54.9-3.4-3.7-5.9-7.2-5.5-7.8.7-1.2 7.7-4.9 11.5-6.1 1.4-.4 5.5-.7 9.2-.5 5.2.2 8.2 1 13.5 3.6zm87-1.3c3.7 3.9 7.7 13.3 10.3 23.9l2.2 9-2.7 6c-5.9 12.9-17.4 38.2-19.5 43.1-2.5 5.8-3.5 6.5-4.6 3-.3-1.2-3.2-7.4-6.4-13.7-5.2-10.5-7.7-15.2-14-26.5l-2.3-4 5.5-11.1c14-28.1 24-37.5 31.5-29.7zm55.1-1.3c4.5 2.3 9.7 13.6 12.8 27.6.4 1.9.8 3.7.9 4 1.4 6.1 4.1 26.4 5.3 39.5 1 10.8.9 49.7-.1 61.5-.9 10.2-2.7 24.5-4.3 33-.2 1.4-.7 4.3-1 6.5-1 6.5-5.3 20.6-8 26-2.8 5.5-5.8 8.4-8.8 8.5-5.2 0-13.7-9.7-22.9-26.5-5.6-10-5.6-10-4.6-15.5.5-3 1.2-8 1.5-11 .3-3 .7-6.6 1-8 2.4-14.3 2.3-68.3-.1-88.2-.3-1.8-.7-5.6-1.1-8.3-.3-2.8-1-7-1.5-9.5-.8-4.1-.5-5.1 3.3-12.5 7.6-14.8 14.5-24.1 20.3-27.3 2.7-1.5 4.1-1.5 7.3.2zm-182.2 15.8c3.9 4.2 12.5 15.4 15 19.5 10.8 17.9 16.4 27.9 25.5 45.8 10 19.6 10.7 21.2 9.4 23.5-.7 1.4-5.7 11.4-10.9 22.4-13.8 28.5-25.6 47.8-38.4 62.6l-3 3.5-3.2-3c-5.5-5.1-17.7-22.1-25.4-35.5-5.5-9.5-25.6-50.5-25.6-52.2 0-1 .4-2.6 1-3.6.5-.9 4.7-9.6 9.3-19.2 9.4-19.7 18.3-35.7 26.5-47.5 5.8-8.4 15-19.5 16.2-19.5.3 0 2 1.5 3.6 3.2zm144.1 55.3c1.6 18.1 1 57.2-1.4 74.9l-.6 4.9-1.7-3.4c-1-1.9-5.9-12.7-10.9-24l-9.1-20.7 8.4-19.3c4.6-10.7 9.4-21.8 10.7-24.8l2.4-5.4.7 4.4c.3 2.4 1 8.4 1.5 13.4zM138 185.3c2.2 4.9 4 9.2 4 9.8 0 .5.4 1.7 1 2.7.5.9 2.5 5.1 4.3 9.2l3.3 7.5-2.2 5c-1.2 2.7-5.9 13.4-10.4 23.7-4.5 10.4-8.6 18.8-9 18.8-.9 0-20.1-38.4-22.1-44.1-1.1-3.4-1-4.2 2.2-11 2.8-6.2 13-26.4 18.7-37.3l1.5-3 2.4 5c1.2 2.7 4.1 8.9 6.3 13.7zm179.1 7.6l10.7 21.3-5 10.7C316 239.7 304.6 262 304 262c-.3 0-1.1-1.2-1.7-2.8-.6-1.5-5.2-12.1-10.2-23.6l-9-20.8 10.2-23.8c9.6-22.4 10.3-23.6 11.7-21.6.8 1.1 6.3 11.7 12.1 23.5zM83 191c5.5 12.3 10 22.9 10 23.5 0 2.5-20.8 49-21 47-.1-.6-.3-1.9-.5-3s-.6-4.5-.9-7.5c-.3-3-.9-8.9-1.3-13-1.4-14.7-.7-47.9 1.3-60.9 1.2-7.4 1.6-9.3 2-8.9.2.3 4.9 10.6 10.4 22.8zm87.6 66c12.4 23.6 22.8 39.5 32.3 49.3l4.6 4.8-3.5 2.9c-9.2 7.8-23.4 7-36.5-2-8.8-6-21.7-21-29.2-33.7l-2.6-4.4 8.6-19.2c4.7-10.6 9.3-21 10.2-23.2l1.6-3.9 3.7 7.9c2.1 4.4 6.9 14.1 10.8 21.5zm174.2-4.5c3.3 7.1 7.7 16.7 9.9 21.3l4 8.3-1.9 8.2c-4.2 17.7-10.2 28.7-15.6 28.7-5.8 0-13.9-10.2-25.7-32.3l-5.8-10.9 11.9-23.6 11.9-23.7 2.7 5.5c1.5 3 5.4 11.3 8.6 18.5zm-236.4-5.8c4.8 9.7 10 19.9 11.6 22.5 1.7 2.7 3 5.5 3 6.3 0 1.9-10.2 21.3-15.5 29.5-11 17.1-17.2 18.1-24.2 4-1.8-3.6-4.4-10.9-5.9-16.4l-2.6-9.9 3.3-7.1c1.8-3.9 5.2-11.3 7.6-16.4 2.4-5.1 4.3-9.4 4.3-9.6 0-.2 1.7-4.2 3.8-8.8 2.2-4.5 4.2-9.1 4.5-10.1.4-.9.8-1.7 1.1-1.7.2 0 4.3 8 9 17.7zm171-12.5c3.3 7.5 7.2 15.8 12.2 26.7 6.4 13.6 6.4 13 .8 21.2-16.7 24.5-32.5 37-46.7 37-5.9.1-15.1-2.7-19.1-5.6-1.8-1.4-1.7-1.7 2.5-6.2 11.8-12.6 24.4-32.5 38.5-61 4.8-9.5 8.8-17.3 9-17.3.3 0 1.5 2.4 2.8 5.2z"/></svg>