<svg xmlns="http://www.w3.org/2000/svg" viewBox="0 0 45 44.989">
  <defs>
    <style>
      .cls-1 {
        fill: #88b337;
      }

      .cls-2 {
        fill: #6b962a;
      }

      .cls-3 {
        fill: #fff;
      }

      .cls-4 {
        fill: #fdb62f;
      }

      .cls-5 {
        fill: #fec9a3;
      }

      .cls-6 {
        fill: #f7bb8f;
      }

      .cls-7 {
        fill: #4398d1;
      }

      .cls-8 {
        fill: #3e8cc7;
      }

      .cls-9 {
        fill: #d9d9d9;
      }
    </style>
  </defs>
  <g id="bank" transform="translate(0 -0.063)">
    <g id="Group_4" data-name="Group 4" transform="translate(7.757 0.063)">
      <path id="Path_21" data-name="Path 21" class="cls-1" d="M117.729,85.631a1.823,1.823,0,0,0-.271-.962l-1.73-2.785A3.049,3.049,0,0,1,115.4,80.5V71.925a10.083,10.083,0,0,0-10.084-10.084h-4.654A10.083,10.083,0,0,0,90.58,71.925V80.5a3.047,3.047,0,0,1-.326,1.381l-1.73,2.785a1.823,1.823,0,0,0-.271.962h0a1.814,1.814,0,0,0,1.807,1.807h25.861A1.814,1.814,0,0,0,117.729,85.631Z" transform="translate(-88.253 -56.411)"/>
      <path id="Path_22" data-name="Path 22" class="cls-1" d="M193.867,5.493l3.878-5.43H185.335l3.878,5.43V7.044h4.654Z" transform="translate(-176.802 -0.063)"/>
    </g>
    <path id="Path_23" data-name="Path 23" class="cls-2" d="M208.985,124.918l-1.73-2.785a3.049,3.049,0,0,1-.326-1.381v-8.579a10.081,10.081,0,0,0-2.118-6.205c-2.071,11.41-9.362,17.988-16.212,21.719h18.849A1.815,1.815,0,0,0,209,124.918Z" transform="translate(-172.024 -96.597)"/>
    <path id="Path_24" data-name="Path 24" class="cls-3" d="M219.478,145.924v-.5a2.614,2.614,0,0,0-2.606-2.606h-.5V141.27h-1.551v1.551h-.5a2.606,2.606,0,0,0-.915,5.05l1.412.527v2.955h-.5a1.055,1.055,0,0,1-1.055-1.055h0v-.5h-1.551v.5a2.614,2.614,0,0,0,2.606,2.606h2.544a2.606,2.606,0,0,0,.915-5.05l-1.412-.527v-2.955h.5a1.055,1.055,0,0,1,1.055,1.055h0v.5Zm-2.234,3.382a1.071,1.071,0,0,1,.683.993,1.055,1.055,0,0,1-1.055,1.055h-.5V148.98Zm-2.42-2.56-.869-.326a1.071,1.071,0,0,1-.683-.993,1.055,1.055,0,0,1,1.055-1.055h.5Z" transform="translate(-193.105 -128.796)"/>
    <g id="Group_5" data-name="Group 5" transform="translate(0 1.614)">
      <path id="Path_25" data-name="Path 25" class="cls-4" d="M400.248,23.918h0a3.769,3.769,0,0,0-3.1-3.1h0a3.769,3.769,0,0,0,3.1-3.1h0a3.77,3.77,0,0,0,3.1,3.1h0A3.77,3.77,0,0,0,400.248,23.918Z" transform="translate(-362.24 -17.713)"/>
      <path id="Path_26" data-name="Path 26" class="cls-4" d="M3.1,200.428h0a3.769,3.769,0,0,0-3.1-3.1H0a3.77,3.77,0,0,0,3.1-3.1h0a3.77,3.77,0,0,0,3.1,3.1h0A3.769,3.769,0,0,0,3.1,200.428Z" transform="translate(0 -178.709)"/>
    </g>
    <path id="Path_27" data-name="Path 27" class="cls-5" d="M84.9,268.619a2.327,2.327,0,0,0-3.1-.861l-11.007,4.7a1.556,1.556,0,0,1-.613.124H56.538a1.551,1.551,0,1,1,0-3.1h6.205a4.654,4.654,0,0,0,4.654-4.654H54.49a7.053,7.053,0,0,0-5.5,2.645l-4.863,5.887L49.6,283.4l21.075-5.065a11.192,11.192,0,0,0,2.622-.962l10.859-5.562A2.326,2.326,0,0,0,84.9,268.619Z" transform="translate(-40.249 -241.493)"/>
    <path id="Path_28" data-name="Path 28" class="cls-6" d="M86.578,379.052l1.745,3.2,21.075-5.065a11.193,11.193,0,0,0,2.622-.962l5.872-3.017C108.134,376.189,95.18,378.051,86.578,379.052Z" transform="translate(-78.969 -340.345)"/>
    <path id="Path_29" data-name="Path 29" class="cls-7" d="M0,328.932v13.962H10.084l2.327-2.327L3.1,326.605Z" transform="translate(0 -297.842)"/>
    <path id="Path_30" data-name="Path 30" class="cls-8" d="M0,461.226H10.084l2.327-2.327-1.706-2.56A54.856,54.856,0,0,1,0,459.527Z" transform="translate(0 -416.174)"/>
    <circle id="Ellipse_1" data-name="Ellipse 1" class="cls-9" cx="1.551" cy="1.551" r="1.551" transform="translate(5.43 39.625)"/>
  </g>
</svg>
