<svg id="blog-1" xmlns="http://www.w3.org/2000/svg" viewBox="0 0 100 100">
  <defs>
    <style>
      .cls-1 {
        fill: #f5f5f5;
      }
    </style>
  </defs>
  <path id="Path_3" data-name="Path 3" class="cls-1" d="M0,0V100H100V0ZM85.23,71.68a3.09,3.09,0,0,1-3.08,3.08H41.31a1.43,1.43,0,0,0-.86.29L26.15,85.77a1.43,1.43,0,0,1-2.29-1.15V76.2a1.43,1.43,0,0,0-1.43-1.43H17.85a3.09,3.09,0,0,1-3.08-3.08V25a3.09,3.09,0,0,1,3.08-3.08h64.3A3.09,3.09,0,0,1,85.23,25Z"/>
  <path id="Path_4" data-name="Path 4" class="cls-1" d="M26.4,46.17h4.8c2.74,0,4.4-1.19,4.4-3.69a3,3,0,0,0-1.7-2.87h0a2.89,2.89,0,0,0,1.47-2.7c0-2-1.29-3.37-4-3.37H26.4a.18.18,0,0,0-.19.19V46a.18.18,0,0,0,.19.17ZM29,35.83a.1.1,0,0,1,.11-.11H31a1.493,1.493,0,1,1,0,2.96H29.06a.1.1,0,0,1-.11-.11Zm0,5.07a.1.1,0,0,1,.11-.11H31.2a1.59,1.59,0,1,1,0,3.17H29.06a.1.1,0,0,1-.11-.11Z"/>
  <path id="Path_5" data-name="Path 5" class="cls-1" d="M39.62,46.17h8.25a.18.18,0,0,0,.19-.19V43.91a.18.18,0,0,0-.19-.19H42.29a.1.1,0,0,1-.11-.11V33.68A.18.18,0,0,0,42,33.5H39.62a.18.18,0,0,0-.19.19V46a.18.18,0,0,0,.19.17Z"/>
  <path id="Path_6" data-name="Path 6" class="cls-1" d="M55.73,46.37a4.47,4.47,0,0,0,4.62-3.07,10.25,10.25,0,0,0,.35-3.46,10.25,10.25,0,0,0-.35-3.46,4.47,4.47,0,0,0-4.62-3.07,4.47,4.47,0,0,0-4.62,3.07,10.25,10.25,0,0,0-.35,3.46,10.25,10.25,0,0,0,.35,3.46A4.47,4.47,0,0,0,55.73,46.37Zm-2-9.26a2.12,2.12,0,0,1,4,0,9.28,9.28,0,0,1,.21,2.72,9.28,9.28,0,0,1-.21,2.72,2.12,2.12,0,0,1-4,0,9.31,9.31,0,0,1-.21-2.72,9.31,9.31,0,0,1,.22-2.72Z"/>
  <path id="Path_7" data-name="Path 7" class="cls-1" d="M69.33,46.37a4.54,4.54,0,0,0,4.62-3.17,10.12,10.12,0,0,0,.32-2.85v-1a.18.18,0,0,0-.19-.19H69.72a.18.18,0,0,0-.19.19V41.1a.18.18,0,0,0,.19.19h1.71a.1.1,0,0,1,.11.11,4.35,4.35,0,0,1-.15,1.25,2.21,2.21,0,0,1-4.07-.1,9.31,9.31,0,0,1-.21-2.72,9.14,9.14,0,0,1,.21-2.7,2,2,0,0,1,2-1.42A2.31,2.31,0,0,1,71.51,37c0,.09.13.13.26.09l2-.84a.19.19,0,0,0,.08-.28,4.53,4.53,0,0,0-4.51-2.7,4.49,4.49,0,0,0-4.66,3.07,10.25,10.25,0,0,0-.35,3.46,10.25,10.25,0,0,0,.35,3.46,4.49,4.49,0,0,0,4.65,3.11Z"/>
  <path id="Path_8" data-name="Path 8" class="cls-1" d="M73.42,52.5H40.08a1.5,1.5,0,0,0,0,3H73.42a1.5,1.5,0,0,0,0-3Z"/>
  <path id="Path_9" data-name="Path 9" class="cls-1" d="M26.58,55.5h7.34a1.5,1.5,0,0,0,0-3H26.58a1.5,1.5,0,0,0,0,3Z"/>
  <path id="Path_10" data-name="Path 10" class="cls-1" d="M73.42,60.54H26.58a1.5,1.5,0,0,0,0,3H73.42a1.5,1.5,0,0,0,0-3Z"/>
</svg>
