<svg xmlns="http://www.w3.org/2000/svg" viewBox="0 0 45 41.401">
  <defs>
    <style>
      .cls-1 {
        fill: #c03a2b;
      }

      .cls-2 {
        fill: #ed7161;
      }
    </style>
  </defs>
  <g id="like" transform="translate(0 -2)">
    <path id="Path_19" data-name="Path 19" class="cls-1" d="M22.365,9.314A11.769,11.769,0,0,1,33.157,2c6.5,0,11.183,5.561,11.771,12.189a12.13,12.13,0,0,1-.382,4.607A20.37,20.37,0,0,1,38.338,29.15L22.365,43.4,6.662,29.149A20.367,20.367,0,0,1,.454,18.8a12.13,12.13,0,0,1-.382-4.607C.661,7.561,5.343,2,11.843,2A11.4,11.4,0,0,1,22.365,9.314Z" transform="translate(0)"/>
    <path id="Path_20" data-name="Path 20" class="cls-2" d="M5.9,16.978a.9.9,0,0,1-.9-.9,9.01,9.01,0,0,1,9-9,.9.9,0,0,1,0,1.8,7.209,7.209,0,0,0-7.2,7.2A.9.9,0,0,1,5.9,16.978Z" transform="translate(-0.5 -0.508)"/>
  </g>
</svg>
