<svg xmlns="http://www.w3.org/2000/svg" viewBox="0 0 100 100">
  <defs>
    <style>
      .cls-1 {
        fill: #f5f5f5;
      }
    </style>
  </defs>
  <path id="medium-1" class="cls-1" d="M0,0V100H100V0ZM83.05,75.9H57.84s-1.37.09-.26-1.2,5.21-5.38,5.21-5.38.09,0,.14-.24V37.5L48,75.9H45.87l-17.53-37V64a2.68,2.68,0,0,0,.61,2c.43.43,7,8.46,7,8.46s1,1.45-.17,1.45H17s-1.2.08-.51-1.2a9,9,0,0,1,.84-1.19c1.21-1.58,2.5-3.1,3.77-4.63l1.79-2.11L23.5,66a3.16,3.16,0,0,0,.37-2.18v-32l-6.46-8s-.68-1.2.34-1.2H36.3s.43.26,1,1.79S51.6,55.38,51.6,55.38L64.76,23.25a1.26,1.26,0,0,1,1-.6H83.05s.85.34,0,1.2-2,2-3.08,2.95-2.65,2-2.65,3.38v38a2.52,2.52,0,0,0,.34,1.28c.34.43,5.76,5.3,5.76,5.3S84.33,75.9,83.05,75.9Z"/>
</svg>
