<svg xmlns="http://www.w3.org/2000/svg" viewBox="0 0 84.76 45.265">
  <g id="tenten_black" transform="translate(-6.617)">
    <path id="Path_16" data-name="Path 16" d="M84.688,0c-2.057,0-4.017,2.253-6.172,6.172C77.536,2.645,75.969,0,73.519,0s-4.8,3.233-7.446,8.622C62.742,3.821,58.921,0,54.708,0h0a9.714,9.714,0,0,0-5.585,2.155A9.851,9.851,0,0,0,43.735,0h-.294c-4.213,0-8.034,3.919-11.267,8.622C29.528,3.135,27.373,0,24.923,0s-4.017,2.743-5.095,6.27C17.673,2.253,15.812,0,13.656,0,7.288,0,6.7,18.615,6.7,22.534s.49,22.534,6.956,22.534a1.243,1.243,0,0,0,.588-.1c1.862-.392,3.625-2.743,5.487-6.172,1.078,3.527,2.645,6.27,5.095,6.27a.589.589,0,0,0,.392-.1c2.253-.392,4.507-3.625,6.858-8.524,3.331,5,7.054,8.622,11.267,8.622h.294a9.981,9.981,0,0,0,5.389-2.057,9.577,9.577,0,0,0,5.585,2.057h0c4.311,0,8.034-3.625,11.365-8.622,2.547,5.193,4.9,8.72,7.446,8.72h.2c2.351-.2,3.821-2.841,4.8-6.172,2.057,3.821,4.115,6.27,6.172,6.27h.2c6.27-.294,6.662-18.713,6.662-22.534C91.547,18.615,91.155,0,84.688,0ZM73.519,2.155c1.666,0,2.743,3.135,3.527,7.054-1.47,3.037-3.037,6.662-4.9,10.777a82.829,82.829,0,0,0-4.8-9.21C69.6,5.781,71.756,2.155,73.519,2.155Zm4.7,20.379a80.741,80.741,0,0,1-.686,9.6c-1.372-2.939-2.743-6.172-4.213-9.5v-.1c1.372-3.233,2.841-6.662,4.213-9.7A82.164,82.164,0,0,1,78.222,22.534ZM66.269,31.94C64.9,29,63.526,25.768,62.154,22.534v-.1c1.372-3.135,2.743-6.368,4.017-9.308,1.568,2.743,3.135,5.879,4.7,9.308-.1.294-.294.49-.392.784-1.078,2.449-2.253,4.9-3.429,7.152C66.759,30.96,66.465,31.45,66.269,31.94ZM49.123,40.268C45.2,36.447,41.677,29.393,38.542,22.534v-.1C41.971,14.794,45.4,8.328,49.025,4.8,52.553,8.23,55.884,14.6,59.7,22.436c-.1.294-.294.49-.392.784C56.276,29.981,52.846,36.643,49.123,40.268Zm-29.1-17.734a66.382,66.382,0,0,1,.784-9.5c1.274,2.841,2.743,6.074,4.213,9.406-1.47,3.331-2.841,6.662-4.213,9.5A81.666,81.666,0,0,1,20.025,22.534ZM54.708,2.155h0c3.625,0,6.858,3.429,10.189,8.916-1.176,2.547-2.547,5.585-4.017,8.916C58.333,14.4,54.806,7.642,50.593,3.625A6.828,6.828,0,0,1,54.708,2.155Zm-11.267,0h.294a7.868,7.868,0,0,1,3.723,1.372c-4.409,4.311-7.936,11.561-10.091,16.362-1.47-3.331-2.841-6.368-4.017-9.014C36.485,5.585,39.816,2.155,43.441,2.155Zm-7.25,20.281c-1.47,3.331-2.841,6.662-4.213,9.5a93.031,93.031,0,0,1-4.6-9.406v-.1c1.568-3.429,3.135-6.662,4.7-9.406C33.349,15.872,34.721,19.105,36.191,22.436ZM24.923,2.155c1.47,0,3.527,3.429,5.977,8.524a82.5,82.5,0,0,0-4.7,9.21c-1.764-4.017-3.331-7.544-4.7-10.483C22.18,5.389,23.356,2.155,24.923,2.155ZM14.244,42.717a1.393,1.393,0,0,1-.588.2c-3.331,0-4.8-15.186-4.8-20.379s1.47-20.379,4.8-20.379c1.372,0,3.233,2.841,5.389,7.25a82.263,82.263,0,0,0-1.176,13.129,71.945,71.945,0,0,0,1.176,13.129C17.183,39.484,15.616,42.129,14.244,42.717Zm11.071.1a.589.589,0,0,1-.392.1c-1.568,0-2.743-3.233-3.527-7.25,1.47-3.037,3.037-6.662,4.8-10.581a103.12,103.12,0,0,0,4.7,9.308C28.647,38.994,26.785,42.325,25.315,42.815Zm18.419.2h-.294c-3.625,0-7.054-3.723-10.189-8.916,1.274-2.743,2.645-5.781,4.017-9.112,2.939,6.368,6.27,12.737,10.091,16.46A5.5,5.5,0,0,1,43.735,43.011Zm10.973,0h0a6.562,6.562,0,0,1-4.017-1.47c3.919-3.723,7.152-10.091,10.189-16.46,1.47,3.233,2.841,6.27,4.115,9.014C61.762,39.288,58.333,43.011,54.708,43.011Zm19.007-.1h-.2c-1.568,0-3.723-3.527-6.172-8.622.294-.588.686-1.176.98-1.764,1.274-2.351,2.547-4.9,3.723-7.446,1.764,3.821,3.331,7.446,4.9,10.581C76.165,39.484,75.185,42.521,73.715,42.913Zm11.169,0h-.2c-1.372,0-3.331-2.939-5.487-7.152A79.5,79.5,0,0,0,80.28,22.534,80.5,80.5,0,0,0,79.2,9.21c2.057-4.115,3.919-7.054,5.487-7.054,3.625,0,4.7,15.186,4.7,20.379C89.391,27.629,88.118,42.423,84.884,42.913Z" transform="translate(-0.083)"/>
  </g>
</svg>
