<svg xmlns="http://www.w3.org/2000/svg" viewBox="0 0 45 43.035">
  <defs>
    <style>
      .cls-1 {
        fill: #ed8a19;
      }
    </style>
  </defs>
  <path id="star" class="cls-1" d="M24.673,2.4l5.075,10.284a2.423,2.423,0,0,0,1.825,1.325l11.35,1.649a2.423,2.423,0,0,1,1.343,4.133l-8.212,8.005a2.423,2.423,0,0,0-.7,2.145l1.938,11.3A2.424,2.424,0,0,1,33.779,43.8L23.628,38.462a2.426,2.426,0,0,0-2.256,0L11.222,43.8a2.424,2.424,0,0,1-3.516-2.555l1.938-11.3a2.423,2.423,0,0,0-.7-2.145L.735,19.79a2.423,2.423,0,0,1,1.343-4.133l11.35-1.649a2.423,2.423,0,0,0,1.825-1.325L20.328,2.4A2.422,2.422,0,0,1,24.673,2.4Z" transform="translate(-0.001 -1.047)"/>
</svg>
