<svg xmlns="http://www.w3.org/2000/svg" viewBox="0 0 94.8 100.025">
  <defs>
    <style>
      .cls-1 {
        fill: #f5f5f5;
      }
    </style>
  </defs>
  <g id="tenten-logo-white" transform="translate(-2.6)">
    <g id="Group_1" data-name="Group 1">
      <path id="Path_1" data-name="Path 1" class="cls-1" d="M9.1,86.3a14.919,14.919,0,0,1,2.1.2.731.731,0,0,0,1-.4.3.3,0,0,0,0-.4,1.05,1.05,0,0,0-.5-.9,6.632,6.632,0,0,0-2.8-.5c-3.2,0-6.3.9-6.3,7.9,0,6.3,2.5,7.8,6.3,7.8a8.627,8.627,0,0,0,2.8-.4,1.05,1.05,0,0,0,.5-.9c0-.7-.4-1-.9-.9a13.553,13.553,0,0,1-2,.2c-3,0-3.8-1.7-3.8-5.7C5.4,87.3,6.3,86.3,9.1,86.3Z"/>
      <path id="Path_2" data-name="Path 2" class="cls-1" d="M20.9,84.3a24.162,24.162,0,0,0-4.7.5c-.9.2-1.2.5-1.2,1.7V98.7c0,.8.7,1,1.4,1s1.3-.2,1.3-1v-11c0-1.1.2-1.3,2.5-1.3.8,0,1.4.1,2,.1s.8-.5.9-1.1C22.9,84.5,22.4,84.3,20.9,84.3Z"/>
      <path id="Path_3" data-name="Path 3" class="cls-1" d="M27.7,93l4.8-.2c2.8-.1,3.3-.4,3.3-2.8,0-3.3-1.2-5.7-5.7-5.7-3.4,0-6.2,1.5-6.2,6.7v2.1c0,5,2.2,6.9,7.2,6.9a7.813,7.813,0,0,0,3.7-.6,1.231,1.231,0,0,0,.5-1,.961.961,0,0,0-.7-.9h-.3a13.329,13.329,0,0,1-2.8.3c-3.5,0-4.8-1.2-4.8-3.8C26.7,93.3,26.9,93,27.7,93Zm-1-3.3c0-2.1,1-3.3,3.5-3.3,2.3,0,3,1,3,3.4,0,1.2-.5,1.3-1.8,1.3h-3c-1.3,0-1.7-.2-1.7-1.1Z"/>
      <path id="Path_4" data-name="Path 4" class="cls-1" d="M44.4,84.3a8.718,8.718,0,0,0-3.9.7,1.02,1.02,0,0,0-.5.8c0,.9.6,1.1,1,1a16.279,16.279,0,0,1,3.1-.3c2.9,0,3.2,1.1,3.2,2.7s-.2,1.8-1.1,1.9l-2.4.2c-4.1.4-5,1.6-5,4.6s1.3,4,5.5,4c3.5,0,5.5-.2,5.5-1.8V89.2C49.9,85.5,48.7,84.3,44.4,84.3Zm3,9.9V96c0,1.9-.7,2.1-3.3,2.1-2,0-2.4-.3-2.4-2.5s.6-2.7,2.4-2.7h1.4c1.4,0,1.8.4,1.9,1.3Z"/>
      <path id="Path_5" data-name="Path 5" class="cls-1" d="M60.5,84.6H58.8c-.7,0-.8-.1-.8-.7V81.2c0-.9-.7-1-1.3-1s-1.3.1-1.3,1v2.7c0,.6-.1.7-.8.7H53.3c-.6,0-.8.4-.8,1s.2,1.1.8,1.1h1.3c.7,0,.7.2.7.8V96c0,2.5.5,3.9,3.2,3.9a5.662,5.662,0,0,0,1.8-.3c.3-.1.5-.4.5-.9s-.1-.8-.7-.8h-.6c-1.2,0-1.6-.6-1.6-2.1h0V87.5c0-.6.2-.7.8-.7h1.7c.6,0,.8-.4.8-1.1S61.2,84.6,60.5,84.6Z"/>
      <path id="Path_6" data-name="Path 6" class="cls-1" d="M65.8,78.7c-1.3,0-1.7.4-1.7,1.7s.4,1.6,1.7,1.6,1.6-.3,1.6-1.8C67.4,79.1,67.1,78.7,65.8,78.7Z"/>
      <path id="Path_7" data-name="Path 7" class="cls-1" d="M65.8,84.4c-.7,0-1.3.1-1.3,1V98.7c0,.8.7,1,1.3,1s1.4-.2,1.4-1V85.4C67.1,84.6,66.5,84.4,65.8,84.4Z"/>
      <path id="Path_8" data-name="Path 8" class="cls-1" d="M81.6,84.4c-.7,0-1.1.1-1.3,1.1-.8,3.6-2,8.6-2.8,11.3-.2.7-.4.7-.6.7s-.4-.1-.7-.7c-.8-2.8-2.1-7.8-2.9-11.3A1.287,1.287,0,0,0,72,84.4h-.1c-.9,0-1.3.5-1.3,1.1,0,1.5,2.8,10.4,3.8,13.3.4,1.2,1.8,1.2,2.4,1.2s2,0,2.4-1.2C80.3,95.9,83,87,83,85.5,83,85,82.6,84.4,81.6,84.4Z"/>
      <path id="Path_9" data-name="Path 9" class="cls-1" d="M95.9,97.5a13.329,13.329,0,0,1-2.8.3c-3.5,0-4.8-1.2-4.8-3.8,0-.7.2-1,1-1.1l4.8-.2c2.8-.1,3.3-.4,3.3-2.8,0-3.3-1.2-5.7-5.7-5.7-3.4,0-6.2,1.5-6.2,6.7V93c0,5,2.2,6.9,7.2,6.9a7.813,7.813,0,0,0,3.7-.6,1.231,1.231,0,0,0,.5-1,.789.789,0,0,0-.8-.8Zm-7.7-7.8c0-2.1,1-3.3,3.5-3.3,2.3,0,3,1,3,3.4,0,1.2-.4,1.3-1.8,1.3h-3c-1.3,0-1.7-.2-1.7-1.1Z"/>
    </g>
    <g id="Group_2" data-name="Group 2">
      <path id="Path_10" data-name="Path 10" class="cls-1" d="M17.8,67.7c0-.6-.2-1.1-.8-1.1H13.6c-.7,0-.8-.2-.8-.8V61.2c0-.9-.8-1-1.5-1s-1.5.2-1.5,1.1v4.6c0,.6-.1.8-.8.8H5.6c-.6,0-.8.5-.8,1.1S5,69,5.6,69H9.1c.7,0,.8.2.8.8v5.7c0,.9.7,1,1.5,1s1.5-.1,1.5-1.1V69.7c0-.6.2-.7.8-.7H17C17.6,68.9,17.8,68.3,17.8,67.7Z"/>
      <path id="Path_11" data-name="Path 11" class="cls-1" d="M44,65.8v9.5c0,.9.8,1.1,1.4,1.1s1.3-.2,1.3-1.1V65.2c0-3.2-1.1-4.7-6.1-4.7a22.973,22.973,0,0,0-4.5.5c-.9.2-1.2.6-1.2,1.8V75.3c0,.9.8,1.1,1.4,1.1s1.3-.2,1.3-1.1v-11c0-.5,0-.9.6-1.1a5.832,5.832,0,0,1,2.3-.2C43,63,44,63.6,44,65.8Z"/>
      <path id="Path_12" data-name="Path 12" class="cls-1" d="M23.4,69.2h4.9c2.9-.1,3.4-.6,3.4-3.4,0-3-1.3-5.3-5.8-5.3-3.5,0-6.4,1.5-6.4,6.8v2.2c0,5.2,2.3,7,7.4,7a8.225,8.225,0,0,0,3.8-.6,1.231,1.231,0,0,0,.5-1c0-1-.6-1.2-1.1-1.2-.8,0-1.7.3-3,.3-3.5,0-4.9-1.3-4.9-3.8C22.3,69.5,22.5,69.2,23.4,69.2Zm-1.1-3.1v-.7c0-1.3,1-2.5,3.5-2.5,2.3,0,3,.7,3,2.5,0,1.5-.4,1.7-1.8,1.7H24C22.7,67.2,22.3,67.1,22.3,66.1Z"/>
      <path id="Path_13" data-name="Path 13" class="cls-1" d="M61.1,66.6H57.7c-.7,0-.8-.2-.8-.8V61.2c0-.9-.8-1-1.5-1s-1.5.2-1.5,1.1v4.6c0,.6-.1.8-.8.8H49.7c-.6,0-.8.5-.8,1.1s.2,1.2.8,1.2h3.5c.7,0,.8.2.8.8v5.7c0,.9.7,1,1.5,1s1.6-.1,1.6-1.1V69.7c0-.6.2-.7.8-.7h3.4c.6,0,.8-.5.8-1.2S61.8,66.6,61.1,66.6Z"/>
      <path id="Path_14" data-name="Path 14" class="cls-1" d="M88.1,65.8v9.5c0,.9.8,1.1,1.4,1.1s1.3-.2,1.3-1.1V65.2c0-3.2-1.1-4.7-6.1-4.7a22.973,22.973,0,0,0-4.5.5c-.9.2-1.3.6-1.3,1.8V75.3c0,.9.8,1.1,1.4,1.1s1.3-.2,1.3-1.1v-11c0-.5,0-.9.6-1.1a6,6,0,0,1,2.3-.2C87.2,63,88.1,63.6,88.1,65.8Z"/>
      <path id="Path_15" data-name="Path 15" class="cls-1" d="M71.1,76.6a8.225,8.225,0,0,0,3.8-.6,1.231,1.231,0,0,0,.5-1c0-1-.6-1.2-1.1-1.2-.8,0-1.7.3-2.9.3-3.6,0-4.9-1.3-4.9-3.8,0-.8.2-1.1,1.1-1.1h4.9c2.9-.1,3.4-.6,3.4-3.4,0-3-1.3-5.3-5.8-5.3-3.4,0-6.4,1.5-6.4,6.8v2.2C63.6,74.7,66,76.6,71.1,76.6ZM66.5,65.4c0-1.3,1-2.5,3.6-2.5,2.3,0,3,.7,3,2.5,0,1.5-.4,1.7-1.8,1.7h-3c-1.3,0-1.8-.2-1.8-1.1C66.5,66,66.5,65.4,66.5,65.4Z"/>
    </g>
    <path id="Path_16" data-name="Path 16" class="cls-1" d="M86.3,0C84.2,0,82.2,2.3,80,6.3,79,2.7,77.4,0,74.9,0S70,3.3,67.3,8.8C63.9,3.9,60,0,55.7,0h0A9.915,9.915,0,0,0,50,2.2,10.055,10.055,0,0,0,44.5,0h-.3C39.9,0,36,4,32.7,8.8,30,3.2,27.8,0,25.3,0s-4.1,2.8-5.2,6.4C17.9,2.3,16,0,13.8,0,7.3,0,6.7,19,6.7,23s.5,23,7.1,23a1.268,1.268,0,0,0,.6-.1c1.9-.4,3.7-2.8,5.6-6.3,1.1,3.6,2.7,6.4,5.2,6.4a.6.6,0,0,0,.4-.1c2.3-.4,4.6-3.7,7-8.7C36,42.3,39.8,46,44.1,46h.3a10.187,10.187,0,0,0,5.5-2.1A9.775,9.775,0,0,0,55.6,46h0c4.4,0,8.2-3.7,11.6-8.8,2.6,5.3,5,8.9,7.6,8.9H75c2.4-.2,3.9-2.9,4.9-6.3,2.1,3.9,4.2,6.4,6.3,6.4h.2c6.4-.3,6.8-19.1,6.8-23C93.3,19,92.9,0,86.3,0ZM74.9,2.2c1.7,0,2.8,3.2,3.6,7.2-1.5,3.1-3.1,6.8-5,11A84.541,84.541,0,0,0,68.6,11C70.9,5.9,73.1,2.2,74.9,2.2ZM79.7,23a82.41,82.41,0,0,1-.7,9.8c-1.4-3-2.8-6.3-4.3-9.7V23c1.4-3.3,2.9-6.8,4.3-9.9A83.863,83.863,0,0,1,79.7,23ZM67.5,32.6c-1.4-3-2.8-6.3-4.2-9.6v-.1c1.4-3.2,2.8-6.5,4.1-9.5,1.6,2.8,3.2,6,4.8,9.5-.1.3-.3.5-.4.8-1.1,2.5-2.3,5-3.5,7.3C68,31.6,67.7,32.1,67.5,32.6ZM50,41.1C46,37.2,42.4,30,39.2,23v-.1c3.5-7.8,7-14.4,10.7-18,3.6,3.5,7,10,10.9,18-.1.3-.3.5-.4.8C57.3,30.6,53.8,37.4,50,41.1ZM20.3,23a67.754,67.754,0,0,1,.8-9.7c1.3,2.9,2.8,6.2,4.3,9.6-1.5,3.4-2.9,6.8-4.3,9.7A83.354,83.354,0,0,1,20.3,23ZM55.7,2.2h0c3.7,0,7,3.5,10.4,9.1-1.2,2.6-2.6,5.7-4.1,9.1C59.4,14.7,55.8,7.8,51.5,3.7A6.97,6.97,0,0,1,55.7,2.2Zm-11.5,0h.3a8.03,8.03,0,0,1,3.8,1.4C43.8,8,40.2,15.4,38,20.3c-1.5-3.4-2.9-6.5-4.1-9.2C37.1,5.7,40.5,2.2,44.2,2.2ZM36.8,22.9c-1.5,3.4-2.9,6.8-4.3,9.7A94.953,94.953,0,0,1,27.8,23v-.1c1.6-3.5,3.2-6.8,4.8-9.6C33.9,16.2,35.3,19.5,36.8,22.9ZM25.3,2.2c1.5,0,3.6,3.5,6.1,8.7a84.206,84.206,0,0,0-4.8,9.4c-1.8-4.1-3.4-7.7-4.8-10.7C22.5,5.5,23.7,2.2,25.3,2.2ZM14.4,43.6a1.421,1.421,0,0,1-.6.2c-3.4,0-4.9-15.5-4.9-20.8S10.4,2.2,13.8,2.2c1.4,0,3.3,2.9,5.5,7.4A83.963,83.963,0,0,0,18.1,23a73.432,73.432,0,0,0,1.2,13.4C17.4,40.3,15.8,43,14.4,43.6Zm11.3.1a.6.6,0,0,1-.4.1c-1.6,0-2.8-3.3-3.6-7.4,1.5-3.1,3.1-6.8,4.9-10.8a105.251,105.251,0,0,0,4.8,9.5C29.1,39.8,27.2,43.2,25.7,43.7Zm18.8.2h-.3c-3.7,0-7.2-3.8-10.4-9.1,1.3-2.8,2.7-5.9,4.1-9.3,3,6.5,6.4,13,10.3,16.8A5.611,5.611,0,0,1,44.5,43.9Zm11.2,0h0a6.7,6.7,0,0,1-4.1-1.5c4-3.8,7.3-10.3,10.4-16.8,1.5,3.3,2.9,6.4,4.2,9.2C62.9,40.1,59.4,43.9,55.7,43.9Zm19.4-.1h-.2c-1.6,0-3.8-3.6-6.3-8.8.3-.6.7-1.2,1-1.8,1.3-2.4,2.6-5,3.8-7.6,1.8,3.9,3.4,7.6,5,10.8C77.6,40.3,76.6,43.4,75.1,43.8Zm11.4,0h-.2c-1.4,0-3.4-3-5.6-7.3A81.145,81.145,0,0,0,81.8,23,82.16,82.16,0,0,0,80.7,9.4c2.1-4.2,4-7.2,5.6-7.2,3.7,0,4.8,15.5,4.8,20.8C91.1,28.2,89.8,43.3,86.5,43.8Z"/>
  </g>
</svg>
