<?xml version="1.0" encoding="utf-8"?>
<!-- Generator: Adobe Illustrator 21.0.0, SVG Export Plug-In . SVG Version: 6.00 Build 0)  -->
<svg version="1.1" id="Layer_1" xmlns="http://www.w3.org/2000/svg" xmlns:xlink="http://www.w3.org/1999/xlink" x="0px" y="0px"
	 viewBox="0 0 100 100" style="enable-background:new 0 0 100 100;" xml:space="preserve">
<title>icon</title>
<g>
	<path d="M9.1,86.3c0.7,0,1.4,0.1,2.1,0.2c0.4,0.2,0.8,0,1-0.4c0.1-0.1,0.1-0.3,0-0.4c0-0.4-0.2-0.7-0.5-0.9
		c-0.9-0.4-1.8-0.5-2.8-0.5c-3.2,0-6.3,0.9-6.3,7.9c0,6.3,2.5,7.8,6.3,7.8c1,0,1.9-0.1,2.8-0.4c0.3-0.2,0.5-0.5,0.5-0.9
		c0-0.7-0.4-1-0.9-0.9c-0.7,0.1-1.3,0.2-2,0.2c-3,0-3.8-1.7-3.8-5.7C5.4,87.3,6.3,86.3,9.1,86.3z"/>
	<path d="M20.9,84.3c-1.6,0-3.2,0.2-4.7,0.5C15.3,85,15,85.3,15,86.5v12.2c0,0.8,0.7,1,1.4,1s1.3-0.2,1.3-1v-11
		c0-1.1,0.2-1.3,2.5-1.3c0.8,0,1.4,0.1,2,0.1s0.8-0.5,0.9-1.1C22.9,84.5,22.4,84.3,20.9,84.3z"/>
	<path d="M27.7,93l4.8-0.2c2.8-0.1,3.3-0.4,3.3-2.8c0-3.3-1.2-5.7-5.7-5.7c-3.4,0-6.2,1.5-6.2,6.7v2.1c0,5,2.2,6.9,7.2,6.9
		c1.3,0.1,2.5-0.1,3.7-0.6c0.3-0.2,0.5-0.6,0.5-1s-0.3-0.8-0.7-0.9c-0.1,0-0.2,0-0.3,0c-0.9,0.2-1.9,0.3-2.8,0.3
		c-3.5,0-4.8-1.2-4.8-3.8C26.7,93.3,26.9,93,27.7,93z M26.7,89.7c0-2.1,1-3.3,3.5-3.3c2.3,0,3,1,3,3.4c0,1.2-0.5,1.3-1.8,1.3h-3
		c-1.3,0-1.7-0.2-1.7-1.1V89.7z"/>
	<path d="M44.4,84.3c-1.3-0.1-2.7,0.2-3.9,0.7c-0.3,0.2-0.5,0.5-0.5,0.8c0,0.9,0.6,1.1,1,1c1-0.2,2.1-0.3,3.1-0.3
		c2.9,0,3.2,1.1,3.2,2.7s-0.2,1.8-1.1,1.9l-2.4,0.2c-4.1,0.4-5,1.6-5,4.6s1.3,4,5.5,4c3.5,0,5.5-0.2,5.5-1.8v-8.9
		C49.9,85.5,48.7,84.3,44.4,84.3z M47.4,94.2V96c0,1.9-0.7,2.1-3.3,2.1c-2,0-2.4-0.3-2.4-2.5s0.6-2.7,2.4-2.7h1.4
		C46.9,92.9,47.3,93.3,47.4,94.2L47.4,94.2z"/>
	<path d="M60.5,84.6h-1.7c-0.7,0-0.8-0.1-0.8-0.7v-2.7c0-0.9-0.7-1-1.3-1s-1.3,0.1-1.3,1v2.7c0,0.6-0.1,0.7-0.8,0.7h-1.3
		c-0.6,0-0.8,0.4-0.8,1s0.2,1.1,0.8,1.1h1.3c0.7,0,0.7,0.2,0.7,0.8V96c0,2.5,0.5,3.9,3.2,3.9c0.6,0,1.2-0.1,1.8-0.3
		c0.3-0.1,0.5-0.4,0.5-0.9s-0.1-0.8-0.7-0.8h-0.6c-1.2,0-1.6-0.6-1.6-2.1l0,0v-8.3c0-0.6,0.2-0.7,0.8-0.7h1.7c0.6,0,0.8-0.4,0.8-1.1
		S61.2,84.6,60.5,84.6z"/>
	<path d="M65.8,78.7c-1.3,0-1.7,0.4-1.7,1.7s0.4,1.6,1.7,1.6s1.6-0.3,1.6-1.8C67.4,79.1,67.1,78.7,65.8,78.7z"/>
	<path d="M65.8,84.4c-0.7,0-1.3,0.1-1.3,1v13.3c0,0.8,0.7,1,1.3,1s1.4-0.2,1.4-1V85.4C67.1,84.6,66.5,84.4,65.8,84.4z"/>
	<path d="M81.6,84.4c-0.7,0-1.1,0.1-1.3,1.1c-0.8,3.6-2,8.6-2.8,11.3c-0.2,0.7-0.4,0.7-0.6,0.7s-0.4-0.1-0.7-0.7
		c-0.8-2.8-2.1-7.8-2.9-11.3c-0.1-0.7-0.7-1.1-1.3-1.1c0,0,0,0-0.1,0c-0.9,0-1.3,0.5-1.3,1.1c0,1.5,2.8,10.4,3.8,13.3
		c0.4,1.2,1.8,1.2,2.4,1.2s2,0,2.4-1.2C80.3,95.9,83,87,83,85.5C83,85,82.6,84.4,81.6,84.4z"/>
	<path d="M95.9,97.5c-0.9,0.2-1.9,0.3-2.8,0.3c-3.5,0-4.8-1.2-4.8-3.8c0-0.7,0.2-1,1-1.1l4.8-0.2c2.8-0.1,3.3-0.4,3.3-2.8
		c0-3.3-1.2-5.7-5.7-5.7c-3.4,0-6.2,1.5-6.2,6.7V93c0,5,2.2,6.9,7.2,6.9c1.3,0.1,2.5-0.1,3.7-0.6c0.3-0.2,0.5-0.6,0.5-1
		s-0.3-0.8-0.8-0.8C96,97.5,95.9,97.5,95.9,97.5z M88.2,89.7c0-2.1,1-3.3,3.5-3.3c2.3,0,3,1,3,3.4c0,1.2-0.4,1.3-1.8,1.3h-3
		c-1.3,0-1.7-0.2-1.7-1.1V89.7z"/>
</g>
<g>
	<path d="M17.8,67.7c0-0.6-0.2-1.1-0.8-1.1h-3.4c-0.7,0-0.8-0.2-0.8-0.8v-4.6c0-0.9-0.8-1-1.5-1s-1.5,0.2-1.5,1.1v4.6
		c0,0.6-0.1,0.8-0.8,0.8H5.6c-0.6,0-0.8,0.5-0.8,1.1S5,69,5.6,69h3.5c0.7,0,0.8,0.2,0.8,0.8v5.7c0,0.9,0.7,1,1.5,1s1.5-0.1,1.5-1.1
		v-5.7c0-0.6,0.2-0.7,0.8-0.7H17C17.6,68.9,17.8,68.3,17.8,67.7z"/>
	<path d="M44,65.8v9.5c0,0.9,0.8,1.1,1.4,1.1s1.3-0.2,1.3-1.1V65.2c0-3.2-1.1-4.7-6.1-4.7c-1.5,0-3,0.2-4.5,0.5
		c-0.9,0.2-1.2,0.6-1.2,1.8v12.5c0,0.9,0.8,1.1,1.4,1.1s1.3-0.2,1.3-1.1v-11c0-0.5,0-0.9,0.6-1.1c0.7-0.2,1.5-0.3,2.3-0.2
		C43,63,44,63.6,44,65.8z"/>
	<path d="M23.4,69.2h4.9c2.9-0.1,3.4-0.6,3.4-3.4c0-3-1.3-5.3-5.8-5.3c-3.5,0-6.4,1.5-6.4,6.8v2.2c0,5.2,2.3,7,7.4,7
		c1.3,0.1,2.6-0.1,3.8-0.6c0.3-0.2,0.5-0.6,0.5-1c0-1-0.6-1.2-1.1-1.2c-0.8,0-1.7,0.3-3,0.3c-3.5,0-4.9-1.3-4.9-3.8
		C22.3,69.5,22.5,69.2,23.4,69.2z M22.3,66.1v-0.7c0-1.3,1-2.5,3.5-2.5c2.3,0,3,0.7,3,2.5c0,1.5-0.4,1.7-1.8,1.7h-3
		C22.7,67.2,22.3,67.1,22.3,66.1z"/>
	<path d="M61.1,66.6h-3.4c-0.7,0-0.8-0.2-0.8-0.8v-4.6c0-0.9-0.8-1-1.5-1s-1.5,0.2-1.5,1.1v4.6c0,0.6-0.1,0.8-0.8,0.8h-3.4
		c-0.6,0-0.8,0.5-0.8,1.1s0.2,1.2,0.8,1.2h3.5c0.7,0,0.8,0.2,0.8,0.8v5.7c0,0.9,0.7,1,1.5,1s1.6-0.1,1.6-1.1v-5.7
		c0-0.6,0.2-0.7,0.8-0.7h3.4c0.6,0,0.8-0.5,0.8-1.2S61.8,66.6,61.1,66.6z"/>
	<path d="M88.1,65.8v9.5c0,0.9,0.8,1.1,1.4,1.1s1.3-0.2,1.3-1.1V65.2c0-3.2-1.1-4.7-6.1-4.7c-1.5,0-3,0.2-4.5,0.5
		c-0.9,0.2-1.3,0.6-1.3,1.8v12.5c0,0.9,0.8,1.1,1.4,1.1s1.3-0.2,1.3-1.1v-11c0-0.5,0-0.9,0.6-1.1c0.8-0.2,1.5-0.3,2.3-0.2
		C87.2,63,88.1,63.6,88.1,65.8z"/>
	<path d="M71.1,76.6c1.3,0.1,2.6-0.1,3.8-0.6c0.3-0.2,0.5-0.6,0.5-1c0-1-0.6-1.2-1.1-1.2c-0.8,0-1.7,0.3-2.9,0.3
		c-3.6,0-4.9-1.3-4.9-3.8c0-0.8,0.2-1.1,1.1-1.1h4.9c2.9-0.1,3.4-0.6,3.4-3.4c0-3-1.3-5.3-5.8-5.3c-3.4,0-6.4,1.5-6.4,6.8v2.2
		C63.6,74.7,66,76.6,71.1,76.6z M66.5,65.4c0-1.3,1-2.5,3.6-2.5c2.3,0,3,0.7,3,2.5c0,1.5-0.4,1.7-1.8,1.7h-3c-1.3,0-1.8-0.2-1.8-1.1
		C66.5,66,66.5,65.4,66.5,65.4z"/>
</g>
<path d="M86.3,0c-2.1,0-4.1,2.3-6.3,6.3C79,2.7,77.4,0,74.9,0c-2.5,0-4.9,3.3-7.6,8.8C63.9,3.9,60,0,55.7,0c0,0,0,0,0,0
	c-2,0-3.9,0.9-5.7,2.2c-1.7-1.3-3.6-2.1-5.5-2.2c-0.1,0-0.2,0-0.3,0C39.9,0,36,4,32.7,8.8C30,3.2,27.8,0,25.3,0
	c-2.5,0-4.1,2.8-5.2,6.4C17.9,2.3,16,0,13.8,0C7.3,0,6.7,19,6.7,23c0,4,0.5,23,7.1,23c0.2,0,0.4,0,0.6-0.1c1.9-0.4,3.7-2.8,5.6-6.3
	c1.1,3.6,2.7,6.4,5.2,6.4c0.1,0,0.3,0,0.4-0.1c2.3-0.4,4.6-3.7,7-8.7c3.4,5.1,7.2,8.8,11.5,8.8c0.1,0,0.2,0,0.3,0
	c1.9-0.1,3.7-0.8,5.5-2.1c1.8,1.3,3.7,2.1,5.7,2.1c0,0,0,0,0,0c4.4,0,8.2-3.7,11.6-8.8c2.6,5.3,5,8.9,7.6,8.9c0.1,0,0.2,0,0.2,0
	c2.4-0.2,3.9-2.9,4.9-6.3c2.1,3.9,4.2,6.4,6.3,6.4c0.1,0,0.1,0,0.2,0c6.4-0.3,6.8-19.1,6.8-23C93.3,19,92.9,0,86.3,0z M74.9,2.2
	c1.7,0,2.8,3.2,3.6,7.2c-1.5,3.1-3.1,6.8-5,11c-1.4-3-3-6.4-4.9-9.4C70.9,5.9,73.1,2.2,74.9,2.2z M79.7,23c0,2.2-0.2,6-0.7,9.8
	c-1.4-3-2.8-6.3-4.3-9.7l0-0.1c1.4-3.3,2.9-6.8,4.3-9.9C79.5,16.9,79.7,20.8,79.7,23z M67.5,32.6c-1.4-3-2.8-6.3-4.2-9.6l0-0.1
	c1.4-3.2,2.8-6.5,4.1-9.5c1.6,2.8,3.2,6,4.8,9.5c-0.1,0.3-0.3,0.5-0.4,0.8c-1.1,2.5-2.3,5-3.5,7.3C68,31.6,67.7,32.1,67.5,32.6z
	 M50,41.1C46,37.2,42.4,30,39.2,23c0,0,0,0,0-0.1c3.5-7.8,7-14.4,10.7-18c3.6,3.5,7,10,10.9,18c-0.1,0.3-0.3,0.5-0.4,0.8
	C57.3,30.6,53.8,37.4,50,41.1z M20.3,23c0-2.1,0.2-5.9,0.8-9.7c1.3,2.9,2.8,6.2,4.3,9.6c-1.5,3.4-2.9,6.8-4.3,9.7
	C20.6,28.9,20.3,25.1,20.3,23z M55.7,2.2C55.7,2.2,55.7,2.2,55.7,2.2c3.7,0,7,3.5,10.4,9.1c-1.2,2.6-2.6,5.7-4.1,9.1
	c-2.6-5.7-6.2-12.6-10.5-16.7C52.9,2.7,54.2,2.2,55.7,2.2z M44.2,2.2c0.1,0,0.2,0,0.3,0c1.3,0.1,2.6,0.6,3.8,1.4
	C43.8,8,40.2,15.4,38,20.3c-1.5-3.4-2.9-6.5-4.1-9.2C37.1,5.7,40.5,2.2,44.2,2.2z M36.8,22.9c-1.5,3.4-2.9,6.8-4.3,9.7
	c-1.7-3-3.3-6.3-4.7-9.6c0,0,0,0,0-0.1c1.6-3.5,3.2-6.8,4.8-9.6C33.9,16.2,35.3,19.5,36.8,22.9z M25.3,2.2c1.5,0,3.6,3.5,6.1,8.7
	c-2,3.3-3.6,6.7-4.8,9.4c-1.8-4.1-3.4-7.7-4.8-10.7C22.5,5.5,23.7,2.2,25.3,2.2z M14.4,43.6c-0.2,0.1-0.4,0.2-0.6,0.2
	c-3.4,0-4.9-15.5-4.9-20.8c0-5.3,1.5-20.8,4.9-20.8c1.4,0,3.3,2.9,5.5,7.4C18.3,15,18.1,21,18.1,23c0,2,0.1,8,1.2,13.4
	C17.4,40.3,15.8,43,14.4,43.6z M25.7,43.7c-0.1,0.1-0.3,0.1-0.4,0.1c-1.6,0-2.8-3.3-3.6-7.4c1.5-3.1,3.1-6.8,4.9-10.8
	c1.5,3.3,3.1,6.6,4.8,9.5C29.1,39.8,27.2,43.2,25.7,43.7z M44.5,43.9c-0.1,0-0.2,0-0.3,0c-3.7,0-7.2-3.8-10.4-9.1
	c1.3-2.8,2.7-5.9,4.1-9.3c3,6.5,6.4,13,10.3,16.8C47.1,43.3,45.8,43.9,44.5,43.9z M55.7,43.9C55.7,43.9,55.7,43.9,55.7,43.9
	c-1.4,0-2.8-0.5-4.1-1.5c4-3.8,7.3-10.3,10.4-16.8c1.5,3.3,2.9,6.4,4.2,9.2C62.9,40.1,59.4,43.9,55.7,43.9z M75.1,43.8
	c-0.1,0-0.2,0-0.2,0c-1.6,0-3.8-3.6-6.3-8.8c0.3-0.6,0.7-1.2,1-1.8c1.3-2.4,2.6-5,3.8-7.6c1.8,3.9,3.4,7.6,5,10.8
	C77.6,40.3,76.6,43.4,75.1,43.8z M86.5,43.8c-0.1,0-0.1,0-0.2,0c-1.4,0-3.4-3-5.6-7.3c1-5.4,1.1-11.4,1.1-13.5
	c0-2.1-0.1-8.2-1.1-13.6c2.1-4.2,4-7.2,5.6-7.2c3.7,0,4.8,15.5,4.8,20.8C91.1,28.2,89.8,43.3,86.5,43.8z"/>
</svg>
